<svg width="268" height="210" viewBox="0 0 268 210" fill="none" xmlns="http://www.w3.org/2000/svg">
<path d="M58.4099 84.9877C57.6806 85.7608 56.6466 86.2432 55.5 86.2432C53.2909 86.2432 51.5 84.4524 51.5 82.2432C51.5 80.0341 53.2909 78.2432 55.5 78.2432C56.927 78.2432 58.1795 78.9905 58.8875 80.115L87.7804 59.7174C87.5994 59.2612 87.5 58.7638 87.5 58.2432C87.5 56.0341 89.2909 54.2432 91.5 54.2432C93.7091 54.2432 95.5 56.0341 95.5 58.2432C95.5 60.4524 93.7091 62.2432 91.5 62.2432C90.3516 62.2432 89.3163 61.7593 88.5867 60.9842L59.4418 81.5598C59.4801 81.7819 59.5 82.0102 59.5 82.2432C59.5 82.7658 59.3998 83.2651 59.2175 83.7227L88.3806 103.739C89.1137 102.827 90.2387 102.243 91.5 102.243C93.7091 102.243 95.5 104.034 95.5 106.243C95.5 108.452 93.7091 110.243 91.5 110.243C89.2909 110.243 87.5 108.452 87.5 106.243C87.5 105.836 87.5608 105.443 87.6738 105.073L58.4099 84.9877Z" fill="url(#paint0_angular_522_4032)"/>
<path d="M172.048 60.0928C172.337 59.5397 172.5 58.9105 172.5 58.2432C172.5 56.0341 170.709 54.2432 168.5 54.2432C166.291 54.2432 164.5 56.0341 164.5 58.2432C164.5 60.4524 166.291 62.2432 168.5 62.2432C169.5 62.2432 170.414 61.8765 171.115 61.2704L198.77 80.7946C198.596 81.2438 198.5 81.7323 198.5 82.2432C198.5 83.0296 198.727 83.763 199.119 84.3814L171.353 103.439C170.627 102.701 169.617 102.243 168.5 102.243C166.291 102.243 164.5 104.034 164.5 106.243C164.5 108.452 166.291 110.243 168.5 110.243C170.709 110.243 172.5 108.452 172.5 106.243C172.5 105.691 172.388 105.165 172.186 104.687L200.159 85.4869C200.817 85.9628 201.626 86.2432 202.5 86.2432C204.709 86.2432 206.5 84.4524 206.5 82.2432C206.5 80.0341 204.709 78.2432 202.5 78.2432C201.342 78.2432 200.299 78.7353 199.568 79.5218L172.048 60.0928Z" fill="url(#paint1_angular_522_4032)"/>
<path d="M138.068 40.9794L120.617 127.245C120.578 127.244 120.539 127.243 120.5 127.243C118.291 127.243 116.5 129.034 116.5 131.243C116.5 133.452 118.291 135.243 120.5 135.243C122.709 135.243 124.5 133.452 124.5 131.243C124.5 129.596 123.504 128.182 122.082 127.568L139.545 41.243C141.734 41.2187 143.5 39.4372 143.5 37.2432C143.5 35.0341 141.709 33.2432 139.5 33.2432C137.291 33.2432 135.5 35.0341 135.5 37.2432C135.5 38.9479 136.566 40.4035 138.068 40.9794Z" fill="url(#paint2_angular_522_4032)"/>
<path fill-rule="evenodd" clip-rule="evenodd" d="M260.721 169.12C259.315 169.874 257.707 170.302 256 170.302H154.5C154.469 172.434 152.77 174.162 150.651 174.24L151.937 204.993H169.508C169.637 202.901 171.375 201.243 173.5 201.243C175.709 201.243 177.5 203.034 177.5 205.243C177.5 207.452 175.709 209.243 173.5 209.243C171.727 209.243 170.224 208.09 169.699 206.493H91.3008C90.7759 208.09 89.2726 209.243 87.5 209.243C85.2909 209.243 83.5 207.452 83.5 205.243C83.5 203.034 85.2909 201.243 87.5 201.243C89.6252 201.243 91.3633 202.901 91.4923 204.993H109.671L110.969 173.94C109.537 173.346 108.524 171.944 108.5 170.302H11C9.82072 170.302 8.68912 170.098 7.6386 169.723C6.90598 170.649 5.77237 171.243 4.5 171.243C2.29086 171.243 0.5 169.452 0.5 167.243C0.5 166.065 1.00932 165.006 1.81978 164.274C1.29234 163.056 1 161.714 1 160.302V10.7432C1 9.72417 1.15243 8.74071 1.43574 7.81441C0.851737 7.11915 0.5 6.22227 0.5 5.24323C0.5 3.03409 2.29086 1.24323 4.5 1.24323C5.24082 1.24323 5.93461 1.44462 6.52959 1.79564C7.87488 1.1222 9.39318 0.743225 11 0.743225H256C257.568 0.743225 259.052 1.10429 260.374 1.74784C261.107 0.830734 262.235 0.243225 263.5 0.243225C265.709 0.243225 267.5 2.03409 267.5 4.24323C267.5 5.71294 266.707 6.99753 265.526 7.6928C265.834 8.65447 266 9.67945 266 10.7432V160.302C266 161.193 265.883 162.057 265.665 162.879C266.769 163.591 267.5 164.832 267.5 166.243C267.5 168.452 265.709 170.243 263.5 170.243C262.42 170.243 261.44 169.815 260.721 169.12ZM263.5 8.24323C263.708 8.24323 263.912 8.22734 264.112 8.19671C264.364 9.00068 264.5 9.85608 264.5 10.7432V160.302C264.5 160.996 264.417 161.67 264.26 162.315C264.014 162.268 263.76 162.243 263.5 162.243C261.291 162.243 259.5 164.034 259.5 166.243C259.5 166.827 259.625 167.382 259.85 167.882C258.694 168.471 257.386 168.802 256 168.802H154.233C153.654 167.305 152.201 166.243 150.5 166.243C148.799 166.243 147.346 167.305 146.767 168.802H116.233C115.654 167.305 114.201 166.243 112.5 166.243C110.799 166.243 109.346 167.305 108.767 168.802H11C10.0699 168.802 9.17473 168.653 8.33711 168.377C8.44311 168.017 8.5 167.637 8.5 167.243C8.5 165.034 6.70914 163.243 4.5 163.243C4.01402 163.243 3.54829 163.33 3.11741 163.489C2.71925 162.505 2.5 161.429 2.5 160.302V10.7432C2.5 10.0836 2.57514 9.44146 2.71734 8.825C3.25409 9.09266 3.85946 9.24323 4.5 9.24323C6.70914 9.24323 8.5 7.45236 8.5 5.24323C8.5 4.36463 8.21673 3.55219 7.73655 2.89226C8.74139 2.4741 9.84373 2.24323 11 2.24323H256C257.316 2.24323 258.561 2.54209 259.673 3.07564C259.561 3.44501 259.5 3.83705 259.5 4.24323C259.5 6.45236 261.291 8.24323 263.5 8.24323ZM112.458 174.243L111.172 204.993H150.436L149.139 174.006C147.618 173.456 146.525 172.008 146.5 170.302H116.5C116.468 172.484 114.689 174.243 112.5 174.243L112.458 174.243Z" fill="url(#paint3_angular_522_4032)"/>
<defs>
<radialGradient id="paint0_angular_522_4032" cx="0" cy="0" r="1" gradientUnits="userSpaceOnUse" gradientTransform="translate(260.885 -0.552814) rotate(146.821) scale(311.569 398.033)">
<stop stop-color="#B758F1"/>
<stop offset="0.410765" stop-color="#1DD6FF"/>
<stop offset="0.709962" stop-color="#1D6AFF"/>
<stop offset="1" stop-color="#B758F1"/>
</radialGradient>
<radialGradient id="paint1_angular_522_4032" cx="0" cy="0" r="1" gradientUnits="userSpaceOnUse" gradientTransform="translate(260.885 -0.552814) rotate(146.821) scale(311.569 398.033)">
<stop stop-color="#B758F1"/>
<stop offset="0.410765" stop-color="#1DD6FF"/>
<stop offset="0.709962" stop-color="#1D6AFF"/>
<stop offset="1" stop-color="#B758F1"/>
</radialGradient>
<radialGradient id="paint2_angular_522_4032" cx="0" cy="0" r="1" gradientUnits="userSpaceOnUse" gradientTransform="translate(260.885 -0.552814) rotate(146.821) scale(311.569 398.033)">
<stop stop-color="#B758F1"/>
<stop offset="0.410765" stop-color="#1DD6FF"/>
<stop offset="0.709962" stop-color="#1D6AFF"/>
<stop offset="1" stop-color="#B758F1"/>
</radialGradient>
<radialGradient id="paint3_angular_522_4032" cx="0" cy="0" r="1" gradientUnits="userSpaceOnUse" gradientTransform="translate(260.885 -0.552814) rotate(146.821) scale(311.569 398.033)">
<stop stop-color="#B758F1"/>
<stop offset="0.410765" stop-color="#1DD6FF"/>
<stop offset="0.709962" stop-color="#1D6AFF"/>
<stop offset="1" stop-color="#B758F1"/>
</radialGradient>
</defs>
</svg>
