<svg width="218" height="200" viewBox="0 0 218 200" fill="none" xmlns="http://www.w3.org/2000/svg">
<path d="M56.9661 20.75H156.966V19.25H56.9661V20.75Z" fill="url(#paint0_angular_522_4031)"/>
<path d="M137.966 34.25H78.9661V32.75H137.966V34.25Z" fill="url(#paint1_angular_522_4031)"/>
<path d="M99.5527 88.9819C98.7759 90.2622 98.6173 91.8861 98.7663 93.1401L97.2768 93.3171C97.1022 91.8473 97.2673 89.8569 98.2703 88.2038C99.3061 86.4967 101.177 85.25 104.17 85.25C106.917 85.25 108.842 86.0893 110.069 87.4649C111.282 88.824 111.716 90.5974 111.716 92.2857C111.716 94.0697 110.941 95.7862 109.92 97.365C108.939 98.8813 107.675 100.353 106.51 101.711L106.357 101.888C105.701 102.653 105.399 103.772 105.323 104.945C105.248 106.105 105.4 107.208 105.547 107.827L104.087 108.173C103.911 107.43 103.74 106.176 103.826 104.848C103.912 103.533 104.257 102.033 105.219 100.912L105.346 100.763C106.532 99.3816 107.736 97.9789 108.66 96.5505C109.619 95.067 110.216 93.6446 110.216 92.2857C110.216 90.8312 109.841 89.4617 108.95 88.4637C108.074 87.4821 106.602 86.75 104.17 86.75C101.662 86.75 100.297 87.7557 99.5527 88.9819Z" fill="url(#paint2_angular_522_4031)"/>
<path d="M106.466 113.5C106.466 114.605 105.571 115.5 104.466 115.5C103.361 115.5 102.466 114.605 102.466 113.5C102.466 112.395 103.361 111.5 104.466 111.5C105.571 111.5 106.466 112.395 106.466 113.5Z" fill="url(#paint3_angular_522_4031)"/>
<path d="M73.9661 166.75H143.466V165.25H73.9661V166.75Z" fill="url(#paint4_angular_522_4031)"/>
<path d="M157.966 180.75H58.9661V179.25H157.966V180.75Z" fill="url(#paint5_angular_522_4031)"/>
<path fill-rule="evenodd" clip-rule="evenodd" d="M34.6549 7.34555C33.9209 6.62038 33.4661 5.6133 33.4661 4.5C33.4661 2.29086 35.2569 0.5 37.4661 0.5C38.5794 0.5 39.5864 0.954824 40.3116 1.6888C41.4436 1.24417 42.6763 1 43.9661 1H173.966C175.573 1 177.091 1.37898 178.436 2.05242C179.031 1.70139 179.725 1.5 180.466 1.5C182.675 1.5 184.466 3.29086 184.466 5.5C184.466 6.47904 184.114 7.37593 183.53 8.07119C183.814 8.99749 183.966 9.98094 183.966 11V25.25H209.665C210.19 23.653 211.693 22.5 213.466 22.5C215.675 22.5 217.466 24.2909 217.466 26.5C217.466 28.2726 216.313 29.7759 214.716 30.3008V96.6992C216.313 97.2241 217.466 98.7274 217.466 100.5C217.466 102.709 215.675 104.5 213.466 104.5C211.693 104.5 210.19 103.347 209.665 101.75H155.458C155.329 103.843 153.591 105.5 151.466 105.5C150.396 105.5 149.425 105.08 148.707 104.396L109.326 131.447C109.417 131.783 109.466 132.136 109.466 132.5C109.466 134.709 107.675 136.5 105.466 136.5C103.257 136.5 101.466 134.709 101.466 132.5C101.466 132.061 101.537 131.638 101.668 131.243L59.666 103.901C58.9362 104.872 57.7745 105.5 56.4661 105.5C54.3409 105.5 52.6028 103.843 52.4738 101.75H8.26687C7.87124 102.954 6.91976 103.905 5.71606 104.301V169.699C7.08208 170.148 8.12329 171.313 8.39587 172.75H33.9661V157C33.9661 155.981 34.1185 154.997 34.4018 154.071C33.8178 153.376 33.4661 152.479 33.4661 151.5C33.4661 149.291 35.2569 147.5 37.4661 147.5C38.2069 147.5 38.9007 147.701 39.4957 148.052C40.8409 147.379 42.3592 147 43.9661 147H173.966C175.573 147 177.091 147.379 178.436 148.052C179.031 147.701 179.725 147.5 180.466 147.5C182.675 147.5 184.466 149.291 184.466 151.5C184.466 152.479 184.114 153.376 183.53 154.071C183.814 154.997 183.966 155.981 183.966 157V190C183.966 191.019 183.814 192.003 183.53 192.929C184.114 193.624 184.466 194.521 184.466 195.5C184.466 197.709 182.675 199.5 180.466 199.5C179.725 199.5 179.031 199.299 178.436 198.948C177.091 199.621 175.573 200 173.966 200H43.9661C42.3592 200 40.8409 199.621 39.4957 198.948C38.9007 199.299 38.2069 199.5 37.4661 199.5C35.2569 199.5 33.4661 197.709 33.4661 195.5C33.4661 194.521 33.8178 193.624 34.4018 192.929C34.1185 192.003 33.9661 191.019 33.9661 190V174.25H8.39587C8.04481 176.101 6.41886 177.5 4.46606 177.5C2.25693 177.5 0.466064 175.709 0.466064 173.5C0.466064 171.375 2.12338 169.637 4.21606 169.508V104.492C2.12338 104.363 0.466064 102.625 0.466064 100.5C0.466064 98.2909 2.25693 96.5 4.46606 96.5C6.59124 96.5 8.32933 98.1573 8.45838 100.25H52.6653C53.1901 98.653 54.6935 97.5 56.4661 97.5C57.6127 97.5 58.6467 97.9825 59.376 98.7555L101.678 70.7874C101.541 70.3834 101.466 69.9504 101.466 69.5C101.466 67.2909 103.257 65.5 105.466 65.5C107.675 65.5 109.466 67.2909 109.466 69.5C109.466 69.8746 109.415 70.2372 109.318 70.5811L149.059 98.3053C149.728 97.7998 150.562 97.5 151.466 97.5C153.239 97.5 154.742 98.653 155.267 100.25H209.474C209.598 98.24 211.206 96.6316 213.216 96.5077V30.4923C211.206 30.3684 209.598 28.76 209.474 26.75H183.966V44C183.966 45.0191 183.814 46.0025 183.53 46.9288C184.114 47.6241 184.466 48.521 184.466 49.5C184.466 51.7091 182.675 53.5 180.466 53.5C179.725 53.5 179.031 53.2986 178.436 52.9476C177.091 53.621 175.573 54 173.966 54H43.9661C42.3592 54 40.8409 53.621 39.4957 52.9476C38.9007 53.2986 38.2069 53.5 37.4661 53.5C35.2569 53.5 33.4661 51.7091 33.4661 49.5C33.4661 48.521 33.8178 47.6241 34.4018 46.9288C34.1185 46.0025 33.9661 45.0191 33.9661 44V11C33.9661 9.71025 34.2102 8.47754 34.6549 7.34555ZM41.4661 4.5C41.4661 6.70914 39.6752 8.5 37.4661 8.5C36.9252 8.5 36.4093 8.39263 35.9387 8.19805C35.6325 9.07537 35.4661 10.0182 35.4661 11V44C35.4661 44.6597 35.5412 45.3018 35.6834 45.9182C36.2202 45.6506 36.8255 45.5 37.4661 45.5C39.6752 45.5 41.4661 47.2909 41.4661 49.5C41.4661 50.3786 41.1828 51.191 40.7026 51.851C41.7074 52.2691 42.8098 52.5 43.9661 52.5H173.966C175.122 52.5 176.225 52.2691 177.23 51.851C176.749 51.191 176.466 50.3786 176.466 49.5C176.466 47.2909 178.257 45.5 180.466 45.5C181.107 45.5 181.712 45.6506 182.249 45.9182C182.391 45.3018 182.466 44.6597 182.466 44V11C182.466 10.3403 182.391 9.69824 182.249 9.08178C181.712 9.34944 181.107 9.5 180.466 9.5C178.257 9.5 176.466 7.70914 176.466 5.5C176.466 4.6214 176.749 3.80897 177.23 3.14904C176.225 2.73087 175.122 2.5 173.966 2.5H43.9661C42.9843 2.5 42.0414 2.66644 41.1641 2.97264C41.3587 3.44325 41.4661 3.95909 41.4661 4.5ZM108.657 130.087C107.926 129.123 106.769 128.5 105.466 128.5C104.235 128.5 103.134 129.056 102.4 129.93L60.3289 102.542C60.4184 102.21 60.4661 101.861 60.4661 101.5C60.4661 100.977 60.3658 100.478 60.1833 100.02L102.421 72.0941C103.155 72.9544 104.247 73.5 105.466 73.5C106.758 73.5 107.908 72.8871 108.639 71.9361L148.045 99.4268C147.677 100.031 147.466 100.741 147.466 101.5C147.466 102.099 147.598 102.667 147.833 103.177L108.657 130.087ZM40.7026 197.851C41.7074 198.269 42.8098 198.5 43.9661 198.5H173.966C175.122 198.5 176.225 198.269 177.23 197.851C176.749 197.191 176.466 196.379 176.466 195.5C176.466 193.291 178.257 191.5 180.466 191.5C181.107 191.5 181.712 191.651 182.249 191.918C182.391 191.302 182.466 190.66 182.466 190V157C182.466 156.34 182.391 155.698 182.249 155.082C181.712 155.349 181.107 155.5 180.466 155.5C178.257 155.5 176.466 153.709 176.466 151.5C176.466 150.621 176.749 149.809 177.23 149.149C176.225 148.731 175.122 148.5 173.966 148.5H43.9661C42.8098 148.5 41.7074 148.731 40.7026 149.149C41.1828 149.809 41.4661 150.621 41.4661 151.5C41.4661 153.709 39.6752 155.5 37.4661 155.5C36.8255 155.5 36.2202 155.349 35.6834 155.082C35.5412 155.698 35.4661 156.34 35.4661 157V190C35.4661 190.66 35.5412 191.302 35.6834 191.918C36.2202 191.651 36.8255 191.5 37.4661 191.5C39.6752 191.5 41.4661 193.291 41.4661 195.5C41.4661 196.379 41.1828 197.191 40.7026 197.851Z" fill="url(#paint6_angular_522_4031)"/>
<defs>
<radialGradient id="paint0_angular_522_4031" cx="0" cy="0" r="1" gradientUnits="userSpaceOnUse" gradientTransform="translate(212.09 -0.259855) rotate(142.478) scale(267.223 360.035)">
<stop stop-color="#B758F1"/>
<stop offset="0.410765" stop-color="#1DD6FF"/>
<stop offset="0.709962" stop-color="#1D6AFF"/>
<stop offset="1" stop-color="#B758F1"/>
</radialGradient>
<radialGradient id="paint1_angular_522_4031" cx="0" cy="0" r="1" gradientUnits="userSpaceOnUse" gradientTransform="translate(212.09 -0.259855) rotate(142.478) scale(267.223 360.035)">
<stop stop-color="#B758F1"/>
<stop offset="0.410765" stop-color="#1DD6FF"/>
<stop offset="0.709962" stop-color="#1D6AFF"/>
<stop offset="1" stop-color="#B758F1"/>
</radialGradient>
<radialGradient id="paint2_angular_522_4031" cx="0" cy="0" r="1" gradientUnits="userSpaceOnUse" gradientTransform="translate(212.09 -0.259855) rotate(142.478) scale(267.223 360.035)">
<stop stop-color="#B758F1"/>
<stop offset="0.410765" stop-color="#1DD6FF"/>
<stop offset="0.709962" stop-color="#1D6AFF"/>
<stop offset="1" stop-color="#B758F1"/>
</radialGradient>
<radialGradient id="paint3_angular_522_4031" cx="0" cy="0" r="1" gradientUnits="userSpaceOnUse" gradientTransform="translate(212.09 -0.259855) rotate(142.478) scale(267.223 360.035)">
<stop stop-color="#B758F1"/>
<stop offset="0.410765" stop-color="#1DD6FF"/>
<stop offset="0.709962" stop-color="#1D6AFF"/>
<stop offset="1" stop-color="#B758F1"/>
</radialGradient>
<radialGradient id="paint4_angular_522_4031" cx="0" cy="0" r="1" gradientUnits="userSpaceOnUse" gradientTransform="translate(212.09 -0.259855) rotate(142.478) scale(267.223 360.035)">
<stop stop-color="#B758F1"/>
<stop offset="0.410765" stop-color="#1DD6FF"/>
<stop offset="0.709962" stop-color="#1D6AFF"/>
<stop offset="1" stop-color="#B758F1"/>
</radialGradient>
<radialGradient id="paint5_angular_522_4031" cx="0" cy="0" r="1" gradientUnits="userSpaceOnUse" gradientTransform="translate(212.09 -0.259855) rotate(142.478) scale(267.223 360.035)">
<stop stop-color="#B758F1"/>
<stop offset="0.410765" stop-color="#1DD6FF"/>
<stop offset="0.709962" stop-color="#1D6AFF"/>
<stop offset="1" stop-color="#B758F1"/>
</radialGradient>
<radialGradient id="paint6_angular_522_4031" cx="0" cy="0" r="1" gradientUnits="userSpaceOnUse" gradientTransform="translate(212.09 -0.259855) rotate(142.478) scale(267.223 360.035)">
<stop stop-color="#B758F1"/>
<stop offset="0.410765" stop-color="#1DD6FF"/>
<stop offset="0.709962" stop-color="#1D6AFF"/>
<stop offset="1" stop-color="#B758F1"/>
</radialGradient>
</defs>
</svg>
