<svg width="325" height="262" viewBox="0 0 325 262" fill="none" xmlns="http://www.w3.org/2000/svg">
<path d="M156.065 83.4296L156.067 83.4247L156.073 83.4009C156.079 83.3788 156.089 83.3444 156.102 83.2981C156.128 83.2055 156.169 83.0652 156.224 82.8806C156.333 82.5114 156.502 81.9653 156.732 81.2692C157.194 79.8768 157.903 77.8865 158.891 75.514C160.869 70.7632 163.95 64.5093 168.365 58.4588L165.942 56.6903C161.347 62.9868 158.16 69.4657 156.122 74.361C155.221 76.5232 154.543 78.3822 154.065 79.7879L142.891 64.7814L140.485 66.5731L155.262 86.4183L156.065 83.4296Z" fill="url(#paint0_angular_522_4029)"/>
<path fill-rule="evenodd" clip-rule="evenodd" d="M154.421 101.309C170.931 101.309 184.315 87.9252 184.315 71.4146C184.315 54.9043 170.931 41.5201 154.421 41.5201C137.911 41.5201 124.526 54.9043 124.526 71.4146C124.526 87.9252 137.911 101.309 154.421 101.309ZM154.421 99.6482C170.014 99.6482 182.654 87.0073 182.654 71.4146C182.654 55.8215 170.014 43.1809 154.421 43.1809C138.828 43.1809 126.187 55.8215 126.187 71.4146C126.187 87.0073 138.828 99.6482 154.421 99.6482Z" fill="url(#paint1_angular_522_4029)"/>
<path fill-rule="evenodd" clip-rule="evenodd" d="M157.704 2.21441C156.938 0.890631 155.507 0 153.867 0C152.228 0 150.797 0.890631 150.031 2.21441H145.896C142.227 2.21441 139.253 5.18868 139.253 8.85762V16.0156C139.253 18.9546 137.303 21.5042 134.579 22.6065C134.303 22.7184 134.027 22.8325 133.753 22.9489C131.047 24.0983 127.864 23.6744 125.785 21.5954L120.723 16.533C118.129 13.9386 113.922 13.9386 111.328 16.533L108.455 19.4055C107.808 19.0345 107.057 18.8224 106.258 18.8224C103.812 18.8224 101.829 20.8053 101.829 23.2513C101.829 24.0511 102.041 24.8015 102.412 25.4492L99.5391 28.3218C96.9447 30.9161 96.9447 35.1224 99.5391 37.7168L104.602 42.7792C106.681 44.8583 107.105 48.0409 105.955 50.7471C105.839 51.0211 105.725 51.2964 105.613 51.5727C104.51 54.2972 101.961 56.2466 99.0217 56.2466H91.8639C88.1949 56.2466 85.2206 59.2208 85.2206 62.8898V66.5717C83.3105 67.0633 81.899 68.7973 81.899 70.861C81.899 72.9246 83.3105 74.6586 85.2206 75.1503V79.5617C85.2206 83.2308 88.1949 86.2046 91.8639 86.2046H99.0217C101.961 86.2046 104.51 88.1544 105.613 90.8792C105.725 91.1549 105.839 91.4306 105.955 91.7041C107.105 94.4112 106.681 97.5933 104.602 99.6726L99.5392 104.735C96.9448 107.329 96.9448 111.535 99.5392 114.129L102.556 117.146C102.096 117.844 101.829 118.68 101.829 119.578C101.829 122.024 103.812 124.007 106.258 124.007C107.156 124.007 107.991 123.739 108.689 123.28L111.328 125.919C113.922 128.513 118.129 128.513 120.723 125.919L125.785 120.856C127.864 118.777 131.047 118.353 133.753 119.503C134.027 119.619 134.303 119.733 134.579 119.845C137.303 120.948 139.253 123.497 139.253 126.436V133.594C139.253 137.263 142.227 140.237 145.896 140.237H149.498C149.846 142.336 151.67 143.936 153.867 143.936C156.065 143.936 157.888 142.336 158.236 140.237H162.568C166.237 140.237 169.211 137.263 169.211 133.594V126.436C169.211 123.497 171.161 120.948 173.885 119.845C174.161 119.733 174.437 119.619 174.71 119.503C177.416 118.353 180.6 118.777 182.679 120.856L187.741 125.919C190.335 128.513 194.541 128.513 197.136 125.919L199.93 123.124C200.67 123.678 201.589 124.007 202.584 124.007C205.03 124.007 207.013 122.024 207.013 119.578C207.013 118.582 206.685 117.664 206.13 116.924L208.925 114.129C211.519 111.535 211.519 107.329 208.925 104.735L203.862 99.6726C201.784 97.5933 201.36 94.4112 202.509 91.7041C202.625 91.4306 202.739 91.1549 202.851 90.8792C203.954 88.1544 206.504 86.2046 209.442 86.2046H216.6C220.269 86.2046 223.243 83.2308 223.243 79.5617V75.23C225.342 74.8821 226.943 73.0584 226.943 70.861C226.943 68.6635 225.342 66.8399 223.243 66.492V62.8898C223.243 59.2208 220.269 56.2466 216.6 56.2466H209.442C206.504 56.2466 203.954 54.2972 202.851 51.5727C202.739 51.2964 202.625 51.0211 202.509 50.7471C201.36 48.0409 201.784 44.8582 203.862 42.7792L208.925 37.7168C211.519 35.1224 211.519 30.9161 208.925 28.3218L205.796 25.1931C206.55 24.399 207.013 23.3256 207.013 22.1441C207.013 19.6981 205.03 17.7152 202.584 17.7152C201.403 17.7152 200.329 18.178 199.535 18.9321L197.136 16.533C194.541 13.9386 190.335 13.9386 187.741 16.533L182.679 21.5954C180.6 23.6744 177.417 24.0983 174.71 22.9489C174.437 22.8325 174.161 22.7184 173.885 22.6065C171.161 21.5042 169.211 18.9546 169.211 16.0155V8.85762C169.211 5.18868 166.237 2.21441 162.568 2.21441H157.704ZM153.867 8.85762C156.313 8.85762 158.296 6.87478 158.296 4.42881C158.296 4.24133 158.284 4.05657 158.262 3.87521H162.568C165.32 3.87521 167.55 6.10589 167.55 8.85762V16.0155C167.55 19.7195 169.996 22.8247 173.262 24.1461C173.53 24.2544 173.796 24.3649 174.061 24.4775C177.306 25.8555 181.233 25.3899 183.852 22.7697L188.916 17.7073C190.861 15.7616 194.015 15.7616 195.962 17.7073L198.556 20.3012C198.299 20.8623 198.155 21.4865 198.155 22.1441C198.155 24.59 200.138 26.5729 202.584 26.5729C203.242 26.5729 203.866 26.4296 204.427 26.1725L207.75 29.4962C209.696 31.4419 209.696 34.5967 207.75 36.5423L202.688 41.6048C200.067 44.225 199.602 48.152 200.98 51.3964C201.093 51.6616 201.203 51.928 201.312 52.1956C202.633 55.4614 205.739 57.9074 209.442 57.9074H216.6C219.352 57.9074 221.583 60.138 221.583 62.8898V66.5302C219.584 66.9579 218.085 68.7344 218.085 70.861C218.085 72.9875 219.584 74.764 221.583 75.1917V79.5617C221.583 82.3134 219.352 84.5441 216.6 84.5441H209.442C205.739 84.5441 202.633 86.9896 201.312 90.2558C201.203 90.5238 201.093 90.7895 200.98 91.0552C199.602 94.2993 200.067 98.2266 202.688 100.846L207.75 105.909C209.696 107.855 209.696 111.009 207.75 112.956L204.902 115.804C204.228 115.389 203.434 115.149 202.584 115.149C200.138 115.149 198.155 117.132 198.155 119.578C198.155 120.428 198.395 121.222 198.81 121.896L195.962 124.744C194.015 126.689 190.861 126.689 188.916 124.744L183.852 119.682C181.233 117.061 177.306 116.596 174.061 117.974C173.796 118.086 173.53 118.197 173.262 118.306C169.996 119.627 167.55 122.732 167.55 126.436V133.594C167.55 136.345 165.32 138.576 162.568 138.576H158.198C157.77 136.578 155.994 135.079 153.867 135.079C151.741 135.079 149.964 136.578 149.536 138.576H145.896C143.144 138.576 140.913 136.345 140.913 133.594V126.436C140.913 122.732 138.468 119.627 135.202 118.306C134.934 118.197 134.668 118.086 134.403 117.974C131.158 116.596 127.231 117.061 124.611 119.682L119.549 124.744C117.603 126.689 114.448 126.689 112.502 124.744L109.882 122.124C110.389 121.404 110.686 120.525 110.686 119.578C110.686 117.132 108.703 115.149 106.258 115.149C105.31 115.149 104.432 115.447 103.712 115.954L100.714 112.956C98.7678 111.009 98.7678 107.855 100.714 105.909L105.776 100.846C108.396 98.2266 108.862 94.2993 107.484 91.0552C107.371 90.7895 107.261 90.5238 107.152 90.2558C105.831 86.9896 102.726 84.5441 99.0217 84.5441H91.8639C89.1121 84.5441 86.8815 82.3134 86.8815 79.5617V75.2555C89.0661 74.9831 90.7567 73.1195 90.7567 70.861C90.7567 68.6025 89.0661 66.7389 86.8815 66.4664V62.8898C86.8815 60.138 89.1121 57.9074 91.8639 57.9074H99.0217C102.726 57.9074 105.831 55.4614 107.152 52.1956C107.261 51.928 107.371 51.6616 107.484 51.3964C108.862 48.1521 108.396 44.225 105.776 41.6049L100.713 36.5423C98.7677 34.5967 98.7677 31.4419 100.713 29.4962L103.496 26.7138C104.253 27.3185 105.213 27.6801 106.258 27.6801C108.703 27.6801 110.686 25.6972 110.686 23.2513C110.686 22.2068 110.325 21.2468 109.72 20.4896L112.502 17.7073C114.448 15.7616 117.603 15.7616 119.549 17.7073L124.611 22.7697C127.231 25.3899 131.158 25.8555 134.402 24.4775C134.668 24.3649 134.934 24.2544 135.202 24.1461C138.468 22.8247 140.913 19.7195 140.913 16.0156V8.85762C140.913 6.10589 143.144 3.87521 145.896 3.87521H149.473C149.45 4.05657 149.438 4.24133 149.438 4.42881C149.438 6.87478 151.421 8.85762 153.867 8.85762Z" fill="url(#paint2_angular_522_4029)"/>
<path fill-rule="evenodd" clip-rule="evenodd" d="M65.9828 137.841C44.618 139.019 29.1432 145.612 18.9636 156.948C8.59909 168.489 5.1958 183.344 4.79374 197.638C2.41942 197.72 0.519653 199.67 0.519653 202.064C0.519653 204.51 2.5025 206.493 4.94846 206.493L4.98673 206.493C6.12481 220.404 11.4641 232.965 22.3449 242.244C33.3418 251.622 48.8201 256.629 68.2152 257.487C68.7283 259.366 70.4468 260.746 72.4878 260.746C74.4907 260.746 76.183 259.417 76.7304 257.592C99.2076 257.04 119.168 248.628 134.943 238.543C146.115 231.402 154.746 222.555 161.69 215.331L162.022 215.008L162.355 215.331C169.333 222.59 179.359 231.417 190.507 238.543C206.239 248.601 226.133 256.994 248.536 257.587C248.622 259.958 250.57 261.853 252.962 261.853C255.389 261.853 257.361 259.901 257.39 257.48C276.713 256.602 292.137 251.597 303.104 242.244C313.985 232.965 319.325 220.404 320.463 206.493L320.501 206.493C322.947 206.493 324.93 204.51 324.93 202.064C324.93 199.67 323.03 197.72 320.656 197.638C320.254 183.344 316.85 168.489 306.486 156.948C295.962 145.228 279.778 138.578 257.277 137.741C257.351 137.419 257.391 137.084 257.391 136.74C257.391 134.294 255.408 132.311 252.962 132.311C250.516 132.311 248.533 134.294 248.533 136.74C248.533 137.075 248.57 137.402 248.641 137.717C208.143 139.17 178.348 164.257 162.725 183.556C146.82 163.909 116.227 138.263 74.6062 137.661C74.6691 137.364 74.7022 137.056 74.7022 136.74C74.7022 134.294 72.7194 132.311 70.2734 132.311C67.8275 132.311 65.8446 134.294 65.8446 136.74C65.8446 137.12 65.8926 137.489 65.9828 137.841ZM252.962 141.168C252.936 141.168 252.911 141.168 252.886 141.168C251.872 143.627 251.674 146.17 251.909 148.498C252.045 149.851 252.327 151.123 252.674 152.25C252.769 152.243 252.865 152.24 252.962 152.24C255.163 152.24 256.989 153.846 257.333 155.95C276.126 156.771 286.739 162.257 292.86 169.072C299.206 176.138 302.032 186.063 302.383 198.022C303.926 198.714 305 200.264 305 202.064C305 202.47 304.946 202.862 304.844 203.235C306.412 204.071 308.288 204.794 310.259 205.087C312.354 205.399 314.547 205.228 316.616 204.193C316.27 203.561 316.072 202.836 316.072 202.064C316.072 200.086 317.37 198.41 319.161 197.842C318.786 183.686 315.443 169.167 305.37 157.95C295.112 146.527 279.181 139.951 256.632 139.219C255.836 140.395 254.489 141.168 252.962 141.168ZM251.385 140.879C250.519 140.549 249.784 139.956 249.276 139.196C208.581 140.424 178.703 165.913 163.311 185.221L163.307 185.226L159.993 189.225C160.985 190.037 161.618 191.271 161.618 192.653C161.618 194.726 160.194 196.466 158.271 196.949C159.761 199.753 161.893 201.618 164.022 202.808C164.823 202.007 165.93 201.511 167.154 201.511C168.472 201.511 169.657 202.087 170.468 203.002L173.469 199.516C185.425 182.794 212.209 157.569 248.595 155.928C248.847 154.428 249.854 153.184 251.212 152.599C250.85 151.404 250.559 150.067 250.416 148.648C250.171 146.217 250.359 143.52 251.385 140.879ZM66.6647 139.308C45.2512 140.379 30.008 146.894 20.0796 157.95C10.0064 169.167 6.66413 183.686 6.28871 197.842C8.07953 198.41 9.37728 200.086 9.37728 202.064C9.37728 202.501 9.31405 202.923 9.19627 203.322C13.1946 205.044 16.8835 204.626 19.6155 203.6C19.4387 203.122 19.3421 202.604 19.3421 202.064C19.3421 199.855 20.9606 198.023 23.0769 197.69C23.4707 185.879 26.3033 176.073 32.5896 169.072C38.4639 162.532 48.4752 157.215 65.8846 156.072C66.0911 154.54 67.0809 153.256 68.4376 152.638C67.4944 149.538 67.1126 145.339 68.7892 140.914C67.9264 140.607 67.1869 140.04 66.6647 139.308ZM70.3007 141.168C68.6263 145.37 68.9973 149.365 69.8876 152.257C70.0148 152.246 70.1434 152.24 70.2734 152.24C72.4421 152.24 74.2467 153.799 74.628 155.857C111.573 156.513 138.279 181.012 150.728 198.055L153.36 194.88C152.978 194.226 152.76 193.465 152.76 192.653C152.76 190.207 154.743 188.224 157.189 188.224C157.707 188.224 158.204 188.313 158.666 188.477L161.757 184.745C145.978 165.151 115.463 139.511 73.9867 139.154C73.2013 140.36 71.8447 141.159 70.3007 141.168ZM318.98 206.225C318.458 206.034 317.982 205.748 317.573 205.387C315.116 206.706 312.491 206.936 310.038 206.571C307.904 206.253 305.893 205.485 304.207 204.595C303.7 205.322 302.981 205.889 302.139 206.208C301.134 215.733 297.452 223.108 291.214 228.427C284.708 233.976 274.507 238.074 259.286 239.149C258.631 240.776 257.037 241.924 255.176 241.924C254.395 241.924 253.662 241.722 253.025 241.367C251.723 243.988 250.736 248.265 252.633 253.008C252.742 253 252.851 252.996 252.962 252.996C254.906 252.996 256.557 254.248 257.153 255.99C276.345 255.142 291.468 250.197 302.131 241.103C312.688 232.1 317.894 219.88 318.98 206.225ZM248.598 157.43C248.959 159.513 250.775 161.098 252.962 161.098C255.141 161.098 256.953 159.524 257.322 157.451C275.813 158.267 285.978 163.655 291.744 170.075C297.689 176.695 300.471 186.07 300.871 197.646C300.772 197.639 300.672 197.636 300.572 197.636C298.126 197.636 296.143 199.619 296.143 202.064C296.143 204.51 298.126 206.493 300.572 206.493L300.599 206.493C299.562 215.488 296.038 222.343 290.241 227.286C284.109 232.516 274.373 236.517 259.603 237.622C259.604 237.58 259.605 237.538 259.605 237.495C259.605 235.049 257.622 233.066 255.176 233.066C252.73 233.066 250.747 235.049 250.747 237.495C250.747 237.641 250.755 237.785 250.768 237.927C232.359 237.854 215.348 231.021 201.19 221.971C190.101 214.882 181.113 206.652 175.021 199.927C187 183.397 213.228 159.054 248.598 157.43ZM251.067 239.427L251.19 239.427C251.362 239.781 251.58 240.109 251.836 240.403C250.317 243.291 249.113 248.078 251.164 253.376C250.013 253.888 249.12 254.877 248.737 256.092C226.62 255.544 206.932 247.264 191.315 237.279C180.28 230.225 170.34 221.475 163.427 214.282L163.418 214.272L163.051 213.917L166.196 210.265C166.504 210.333 166.825 210.368 167.154 210.368C169.6 210.368 171.582 208.386 171.582 205.94C171.582 205.379 171.478 204.842 171.288 204.349L174.073 201.114C180.238 207.89 189.265 216.128 200.382 223.235C214.775 232.436 232.173 239.427 251.067 239.427ZM68.0717 255.979C68.1129 255.434 68.2529 254.916 68.4739 254.443C67.7108 253.137 67.0638 251.526 66.7913 249.702C66.4596 247.482 66.6876 244.97 67.9056 242.346C66.8069 241.649 66.0358 240.482 65.8755 239.128C50.8143 238.022 40.7005 233.941 34.2356 228.427C28.0557 223.157 24.3844 215.869 23.3395 206.473C22.1525 206.358 21.1026 205.775 20.3769 204.91C17.2884 206.128 13.0742 206.659 8.52959 204.671C8.01673 205.374 7.30161 205.921 6.46974 206.225C7.55585 219.88 12.7615 232.1 23.3182 241.103C33.9406 250.161 48.9866 255.104 68.0717 255.979ZM72.4878 251.889C74.8565 251.889 76.7909 253.748 76.9107 256.087C98.947 255.494 118.564 247.234 134.135 237.279C145.146 230.241 153.671 221.509 160.617 214.282L160.626 214.273L161.475 213.449L164.741 209.655C163.528 208.865 162.725 207.496 162.725 205.94C162.725 205.259 162.878 204.614 163.153 204.038C160.692 202.635 158.25 200.415 156.637 197.048C155.769 196.94 154.979 196.581 154.341 196.046L151.256 199.77L151.246 199.78C145.107 206.634 136.561 215.887 125.068 223.235C110.736 232.396 93.4264 239.367 74.6255 239.427C74.239 241.479 72.4375 243.031 70.2734 243.031C69.9361 243.031 69.6076 242.993 69.2919 242.922C68.1732 245.304 67.9849 247.54 68.2749 249.481C68.4773 250.835 68.9149 252.059 69.4467 253.098C70.24 252.348 71.3102 251.889 72.4878 251.889ZM149.726 199.228C137.515 182.373 111.117 158.027 74.649 157.358C74.3181 159.477 72.4851 161.098 70.2734 161.098C68.1366 161.098 66.3533 159.585 65.9366 157.571C48.8256 158.703 39.239 163.914 33.7056 170.075C27.75 176.707 24.9682 186.104 24.5771 197.709C26.6381 198.088 28.1997 199.894 28.1997 202.064C28.1997 204.143 26.7677 205.887 24.8364 206.364C25.8545 215.422 29.3842 222.319 35.2089 227.286C41.3552 232.528 51.123 236.536 65.9517 237.63C66.3948 235.652 68.1615 234.173 70.2734 234.173C72.4898 234.173 74.326 235.801 74.6511 237.927C93.0719 237.861 110.094 231.026 124.26 221.971C135.323 214.899 143.632 206.017 149.726 199.228Z" fill="url(#paint3_angular_522_4029)"/>
<defs>
<radialGradient id="paint0_angular_522_4029" cx="0" cy="0" r="1" gradientUnits="userSpaceOnUse" gradientTransform="translate(316.893 -0.997347) rotate(146.011) scale(382.134 494.03)">
<stop stop-color="#B758F1"/>
<stop offset="0.410765" stop-color="#1DD6FF"/>
<stop offset="0.709962" stop-color="#1D6AFF"/>
<stop offset="1" stop-color="#B758F1"/>
</radialGradient>
<radialGradient id="paint1_angular_522_4029" cx="0" cy="0" r="1" gradientUnits="userSpaceOnUse" gradientTransform="translate(316.893 -0.997347) rotate(146.011) scale(382.134 494.03)">
<stop stop-color="#B758F1"/>
<stop offset="0.410765" stop-color="#1DD6FF"/>
<stop offset="0.709962" stop-color="#1D6AFF"/>
<stop offset="1" stop-color="#B758F1"/>
</radialGradient>
<radialGradient id="paint2_angular_522_4029" cx="0" cy="0" r="1" gradientUnits="userSpaceOnUse" gradientTransform="translate(316.893 -0.997347) rotate(146.011) scale(382.134 494.03)">
<stop stop-color="#B758F1"/>
<stop offset="0.410765" stop-color="#1DD6FF"/>
<stop offset="0.709962" stop-color="#1D6AFF"/>
<stop offset="1" stop-color="#B758F1"/>
</radialGradient>
<radialGradient id="paint3_angular_522_4029" cx="0" cy="0" r="1" gradientUnits="userSpaceOnUse" gradientTransform="translate(316.893 -0.997347) rotate(146.011) scale(382.134 494.03)">
<stop stop-color="#B758F1"/>
<stop offset="0.410765" stop-color="#1DD6FF"/>
<stop offset="0.709962" stop-color="#1D6AFF"/>
<stop offset="1" stop-color="#B758F1"/>
</radialGradient>
</defs>
</svg>
