<svg width="300" height="237" viewBox="0 0 300 237" fill="none" xmlns="http://www.w3.org/2000/svg">
<path d="M139.739 5.67825C139.424 8.15741 137.307 10.0742 134.742 10.0742C132.159 10.0742 130.029 8.12902 129.739 5.62328C100.163 6.78701 73.5971 19.6641 54.5486 39.7462L70.2266 40.7018L70.1354 42.199L51.9827 41.0926L53.062 23.5973L54.5592 23.6897L53.5723 39.6867L54.4651 39.7411L53.7857 39.0974C73.0143 18.8057 99.848 5.79259 129.722 4.62317C129.932 2.03488 132.1 0 134.742 0C137.403 0 139.583 2.06387 139.767 4.67837C196.396 7.5214 241.808 52.9348 244.657 109.569C247.272 109.753 249.336 111.932 249.336 114.594C249.336 117.236 247.301 119.403 244.713 119.614C242.733 170.385 206.559 212.377 158.579 223.199C158.607 223.347 158.629 223.498 158.644 223.651H297.131L286.56 212.063L287.668 211.052L299.481 224L287.648 236.01L286.58 234.958L296.735 224.651H158.644C158.393 227.198 156.244 229.188 153.631 229.188C151.126 229.188 149.048 227.359 148.659 224.964C144.102 225.562 139.457 225.882 134.742 225.908V225.91H10.0497C9.7987 228.457 7.65028 230.447 5.03709 230.447C2.4239 230.447 0.275482 228.457 0.0244994 225.91H0V224.91H0.0245084C0.275534 222.363 2.42393 220.373 5.03709 220.373C7.65025 220.373 9.79865 222.363 10.0497 224.91H134.209C139.086 224.906 143.889 224.584 148.598 223.963C148.696 221.268 150.912 219.113 153.631 219.113C155.736 219.113 157.54 220.405 158.293 222.238C205.865 211.539 241.74 169.923 243.713 119.597C241.207 119.307 239.262 117.178 239.262 114.594C239.262 112.029 241.178 109.912 243.657 109.597C240.823 53.4928 195.838 8.50641 139.739 5.67825Z" fill="url(#paint0_angular_522_4035)"/>
<path fill-rule="evenodd" clip-rule="evenodd" d="M139.506 147.716C156.334 145.676 169.372 131.343 169.372 113.964C169.372 96.6758 156.469 82.4011 139.767 80.2453C139.589 77.6258 137.407 75.5564 134.742 75.5564C132.014 75.5564 129.792 77.7256 129.708 80.4335C113.626 83.1303 101.371 97.1161 101.371 113.964C101.371 130.886 113.733 144.92 129.918 147.529C130.542 149.603 132.466 151.113 134.742 151.113C136.95 151.113 138.826 149.692 139.506 147.716ZM139.771 145.777C155.424 143.632 167.483 130.206 167.483 113.964C167.483 97.6432 155.307 84.1662 139.543 82.1212C138.896 84.1562 136.991 85.6306 134.742 85.6306C132.559 85.6306 130.701 84.2419 130.001 82.2998C114.823 84.8553 103.26 98.0594 103.26 113.964C103.26 129.773 114.685 142.915 129.729 145.581C129.977 143.031 132.127 141.039 134.742 141.039C137.424 141.039 139.616 143.134 139.771 145.777Z" fill="url(#paint1_angular_522_4035)"/>
<path fill-rule="evenodd" clip-rule="evenodd" d="M129.773 192.239H125.676C121.503 192.239 118.12 188.857 118.12 184.684V176.542C118.12 173.2 115.903 170.3 112.805 169.046C112.49 168.919 112.177 168.789 111.866 168.657C108.788 167.35 105.168 167.832 102.803 170.196L97.0457 175.954C94.095 178.905 89.3111 178.905 86.3604 175.954L83.3592 172.953C82.5654 173.476 81.6149 173.78 80.5935 173.78C77.8116 173.78 75.5564 171.524 75.5564 168.743C75.5564 167.721 75.8605 166.77 76.3831 165.977L72.9524 162.546C70.0017 159.595 70.0017 154.811 72.9524 151.861L78.7102 146.103C81.0747 143.738 81.5568 140.119 80.2495 137.04C80.1172 136.729 79.9873 136.416 79.8601 136.102C78.6063 133.003 75.7067 130.786 72.3638 130.786H64.2229C60.05 130.786 56.6672 127.403 56.6672 123.23V118.213C54.4947 117.654 52.8894 115.682 52.8894 113.335C52.8894 110.987 54.4947 109.015 56.6672 108.456V104.269C56.6672 100.096 60.05 96.7129 64.2229 96.7129H72.3638C75.7066 96.7129 78.6063 94.4958 79.8601 91.3971C79.9873 91.0828 80.1172 90.7698 80.2495 90.4581C81.5568 87.3802 81.0747 83.7605 78.71 81.3959L72.9523 75.6381C70.0015 72.6874 70.0015 67.9034 72.9523 64.9528L74.8498 63.0552C73.7425 62.1313 73.0378 60.7408 73.0378 59.1858C73.0378 56.4039 75.293 54.1487 78.0749 54.1487C79.6299 54.1487 81.0203 54.8534 81.9443 55.9607L86.3603 51.5448C89.311 48.5941 94.095 48.5941 97.0456 51.5448L102.803 57.3026C105.168 59.6671 108.788 60.1492 111.866 58.8419C112.177 58.7096 112.49 58.5797 112.805 58.4525C115.903 57.1988 118.12 54.2991 118.12 50.9564V42.8153C118.12 38.6424 121.503 35.2596 125.676 35.2596H129.864C130.423 33.0871 132.395 31.4818 134.742 31.4818C137.089 31.4818 139.061 33.0871 139.621 35.2596H144.637C148.811 35.2596 152.193 38.6424 152.193 42.8153V50.9562C152.193 54.2991 154.411 57.1988 157.51 58.4525C157.823 58.5797 158.137 58.7096 158.448 58.8419C161.527 60.1492 165.146 59.6671 167.511 57.3026L173.268 51.5448C176.219 48.5941 181.003 48.5941 183.953 51.5448L187.384 54.9755C188.178 54.4529 189.129 54.1487 190.15 54.1487C192.932 54.1487 195.187 56.4039 195.187 59.1858C195.187 60.2073 194.883 61.1578 194.361 61.9516L197.362 64.9528C200.312 67.9034 200.312 72.6874 197.362 75.6381L191.603 81.3959C189.24 83.7604 188.757 87.3802 190.064 90.4581C190.197 90.7698 190.326 91.0828 190.454 91.3971C191.708 94.4958 194.608 96.7129 197.95 96.7129H206.091C210.264 96.7129 213.647 100.096 213.647 104.269V110.009C215.386 110.803 216.595 112.557 216.595 114.594C216.595 116.63 215.386 118.385 213.647 119.179V123.23C213.647 127.403 210.264 130.786 206.091 130.786H197.95C194.608 130.786 191.708 133.003 190.454 136.102C190.326 136.416 190.197 136.729 190.064 137.04C188.757 140.119 189.24 143.738 191.603 146.103L197.362 151.861C200.312 154.811 200.312 159.595 197.362 162.546L194.183 165.724C194.814 166.566 195.187 167.61 195.187 168.743C195.187 171.524 192.932 173.78 190.15 173.78C189.018 173.78 187.973 173.406 187.132 172.776L183.953 175.954C181.003 178.905 176.219 178.905 173.268 175.954L167.511 170.196C165.146 167.832 161.526 167.35 158.448 168.657C158.137 168.789 157.823 168.919 157.51 169.046C154.411 170.3 152.193 173.2 152.193 176.542V184.684C152.193 188.857 148.811 192.239 144.637 192.239H139.711C139.316 194.626 137.241 196.447 134.742 196.447C132.243 196.447 130.169 194.626 129.773 192.239ZM80.0458 147.438C83.0257 144.459 83.5552 139.992 81.9881 136.302C81.86 136 81.7343 135.698 81.6112 135.393C80.1082 131.678 76.5766 128.897 72.3638 128.897H64.2229C61.0932 128.897 58.5561 126.36 58.5561 123.23V118.333C61.0409 118.023 62.9636 115.903 62.9636 113.335C62.9636 110.766 61.0409 108.646 58.5561 108.336V104.269C58.5561 101.139 61.0932 98.6018 64.2229 98.6018H72.3638C76.5766 98.6018 80.1082 95.8199 81.6112 92.1056C81.7343 91.8012 81.8599 91.4983 81.9881 91.1965C83.5552 87.5067 83.0257 83.0402 80.0458 80.0603L74.2879 74.3024C72.0749 72.0895 72.0749 68.5014 74.2879 66.2885L76.5792 63.9971C77.0518 64.1439 77.5541 64.2229 78.0749 64.2229C80.8568 64.2229 83.112 61.9677 83.112 59.1858C83.112 58.665 83.033 58.1627 82.8862 57.6901L87.696 52.8804C89.9089 50.6675 93.4969 50.6675 95.71 52.8804L101.468 58.6382C104.448 61.6182 108.914 62.1478 112.604 60.5805C112.906 60.4524 113.209 60.3267 113.513 60.2036C117.227 58.7006 120.009 55.169 120.009 50.9564V42.8153C120.009 39.6856 122.546 37.1486 125.676 37.1486H129.744C130.054 39.6333 132.174 41.556 134.742 41.556C137.311 41.556 139.43 39.6333 139.74 37.1486H144.637C147.768 37.1486 150.304 39.6856 150.304 42.8153V50.9562C150.304 55.169 153.086 58.7006 156.801 60.2036C157.106 60.3267 157.408 60.4524 157.71 60.5805C161.4 62.1478 165.866 61.6182 168.846 58.6382L174.604 52.8804C176.817 50.6675 180.405 50.6675 182.618 52.8804L186.028 56.2902C185.452 57.1093 185.113 58.108 185.113 59.1858C185.113 61.9677 187.368 64.2229 190.15 64.2229C191.228 64.2229 192.226 63.8845 193.046 63.3081L196.026 66.2885C198.238 68.5014 198.238 72.0895 196.026 74.3024L190.268 80.0602C187.288 83.0402 186.759 87.5066 188.325 91.1965C188.454 91.4983 188.58 91.8012 188.703 92.1056C190.206 95.8199 193.738 98.6018 197.95 98.6018H206.091C209.221 98.6018 211.758 101.139 211.758 104.269V109.561C211.692 109.558 211.625 109.557 211.558 109.557C208.776 109.557 206.521 111.812 206.521 114.594C206.521 117.376 208.776 119.631 211.558 119.631C211.625 119.631 211.692 119.63 211.758 119.627V123.23C211.758 126.36 209.221 128.897 206.091 128.897H197.95C193.738 128.897 190.206 131.678 188.703 135.393C188.58 135.698 188.454 136 188.325 136.302C186.759 139.992 187.288 144.459 190.268 147.438L196.026 153.197C198.238 155.409 198.238 158.997 196.026 161.211L192.787 164.45C192.02 163.978 191.117 163.705 190.15 163.705C187.368 163.705 185.113 165.961 185.113 168.743C185.113 169.709 185.385 170.612 185.857 171.379L182.618 174.618C180.405 176.831 176.817 176.831 174.604 174.618L168.846 168.861C165.866 165.88 161.4 165.351 157.71 166.918C157.408 167.046 157.106 167.172 156.801 167.296C153.086 168.798 150.304 172.33 150.304 176.542V184.684C150.304 187.813 147.768 190.35 144.637 190.35H139.668C139.181 188.077 137.161 186.372 134.742 186.372C132.324 186.372 130.303 188.077 129.817 190.35H125.676C122.546 190.35 120.009 187.813 120.009 184.684V176.542C120.009 172.33 117.227 168.798 113.513 167.296C113.209 167.172 112.906 167.046 112.604 166.918C108.914 165.351 104.448 165.88 101.468 168.861L95.71 174.618C93.4971 176.831 89.909 176.831 87.6961 174.618L84.7157 171.638C85.2921 170.819 85.6306 169.82 85.6306 168.743C85.6306 165.961 83.3754 163.705 80.5935 163.705C79.5157 163.705 78.5169 164.044 77.6978 164.62L74.288 161.211C72.0751 158.997 72.0751 155.409 74.288 153.197L80.0458 147.438Z" fill="url(#paint2_angular_522_4035)"/>
<defs>
<radialGradient id="paint0_angular_522_4035" cx="0" cy="0" r="1" gradientUnits="userSpaceOnUse" gradientTransform="translate(292.062 -0.898916) rotate(146.644) scale(350.181 448.563)">
<stop stop-color="#B758F1"/>
<stop offset="0.410765" stop-color="#1DD6FF"/>
<stop offset="0.709962" stop-color="#1D6AFF"/>
<stop offset="1" stop-color="#B758F1"/>
</radialGradient>
<radialGradient id="paint1_angular_522_4035" cx="0" cy="0" r="1" gradientUnits="userSpaceOnUse" gradientTransform="translate(292.062 -0.898916) rotate(146.644) scale(350.181 448.563)">
<stop stop-color="#B758F1"/>
<stop offset="0.410765" stop-color="#1DD6FF"/>
<stop offset="0.709962" stop-color="#1D6AFF"/>
<stop offset="1" stop-color="#B758F1"/>
</radialGradient>
<radialGradient id="paint2_angular_522_4035" cx="0" cy="0" r="1" gradientUnits="userSpaceOnUse" gradientTransform="translate(292.062 -0.898916) rotate(146.644) scale(350.181 448.563)">
<stop stop-color="#B758F1"/>
<stop offset="0.410765" stop-color="#1DD6FF"/>
<stop offset="0.709962" stop-color="#1D6AFF"/>
<stop offset="1" stop-color="#B758F1"/>
</radialGradient>
</defs>
</svg>
