<svg width="281" height="211" viewBox="0 0 281 211" fill="none" xmlns="http://www.w3.org/2000/svg">
<path fill-rule="evenodd" clip-rule="evenodd" d="M9.96606 4.5C9.96606 6.98528 7.95134 9 5.46606 9C5.05197 9 4.65095 8.94407 4.27013 8.83935C3.9116 9.82552 3.71606 10.8899 3.71606 12V130.509L15.3088 112.706C14.48 111.89 13.9661 110.755 13.9661 109.5C13.9661 107.015 15.9808 105 18.4661 105C20.9514 105 22.9661 107.015 22.9661 109.5C22.9661 110.303 22.7556 111.058 22.3867 111.71L25.8974 113.758C26.7201 112.689 28.0127 112 29.4661 112C30.4435 112 31.3481 112.312 32.086 112.841L37.3141 105.712C36.4822 104.895 35.9661 103.758 35.9661 102.5C35.9661 100.015 37.9808 98 40.4661 98C42.9514 98 44.9661 100.015 44.9661 102.5C44.9661 102.965 44.8956 103.413 44.7647 103.835L48.8571 106.812C49.6776 105.712 50.9887 105 52.4661 105C52.9833 105 53.4802 105.087 53.9427 105.248L59.7058 95.6427C58.0953 94.9575 56.9661 93.3606 56.9661 91.5C56.9661 89.0147 58.9808 87 61.4661 87C63.9514 87 65.9661 89.0147 65.9661 91.5C65.9661 92.7421 65.4629 93.8666 64.6492 94.6808L70.9895 105.248C71.452 105.087 71.9489 105 72.4661 105C73.1994 105 73.8918 105.175 74.5035 105.487L88.5444 78.9226C87.5784 78.0973 86.9661 76.8701 86.9661 75.5C86.9661 73.0147 88.9808 71 91.4661 71C93.9514 71 95.9661 73.0147 95.9661 75.5C95.9661 76.7369 95.467 77.8573 94.6593 78.6707L100.258 87.578C100.91 87.21 101.664 87 102.466 87C103.37 87 104.212 87.2668 104.918 87.726L122.559 62.7344C122.182 62.076 121.966 61.3132 121.966 60.5C121.966 58.0147 123.981 56 126.466 56C128.951 56 130.966 58.0147 130.966 60.5C130.966 61.2814 130.767 62.0163 130.416 62.6567L136.552 71.0929C136.847 71.032 137.153 71 137.466 71C138.566 71 139.574 71.3946 140.355 72.05L163.745 48.6603L152.923 48.0392L153.009 46.5416L167.051 47.3476L166.996 60.882L165.496 60.8759L165.545 48.7636L165.21 48.7444L165.496 49.0303L141.332 73.195C141.734 73.8692 141.966 74.6576 141.966 75.5C141.966 77.9853 139.951 80 137.466 80C134.981 80 132.966 77.9853 132.966 75.5C132.966 73.8775 133.825 72.4556 135.112 71.6639L129.446 63.8722C128.652 64.574 127.609 65 126.466 65C125.354 65 124.337 64.5969 123.552 63.929L106.03 88.7519C106.617 89.5121 106.966 90.4653 106.966 91.5C106.966 93.9853 104.951 96 102.466 96C99.9808 96 97.9661 93.9853 97.9661 91.5C97.9661 90.3621 98.3885 89.3228 99.085 88.5303L93.4378 79.5462C92.8424 79.8369 92.1733 80 91.4661 80C90.8901 80 90.3393 79.8918 89.833 79.6945L75.7211 106.393C76.4924 107.201 76.9661 108.295 76.9661 109.5C76.9661 111.985 74.9514 114 72.4661 114C69.9808 114 67.9661 111.985 67.9661 109.5C67.9661 108.07 68.6335 106.795 69.6739 105.971L63.4234 95.5532C62.8316 95.8395 62.1676 96 61.4661 96C61.3916 96 61.3176 95.9982 61.244 95.9946L55.2583 105.971C56.2987 106.795 56.9661 108.07 56.9661 109.5C56.9661 111.985 54.9514 114 52.4661 114C49.9808 114 47.9661 111.985 47.9661 109.5C47.9661 109.035 48.0366 108.587 48.1675 108.165L44.0751 105.188C43.2546 106.288 41.9435 107 40.4661 107C39.7787 107 39.1273 106.846 38.5446 106.57L33.1542 113.921C33.6658 114.651 33.9661 115.541 33.9661 116.5C33.9661 118.985 31.9514 121 29.4661 121C26.9808 121 24.9661 118.985 24.9661 116.5C24.9661 116.005 25.0459 115.529 25.1933 115.084L21.4281 112.888C20.6367 113.58 19.6004 114 18.4661 114C17.7762 114 17.1226 113.845 16.5382 113.567L4.59456 131.909L3.71606 133.336V161.559C3.71606 162.481 3.85079 163.371 4.10162 164.211C4.53198 164.074 4.9904 164 5.46606 164C7.95134 164 9.96606 166.015 9.96606 168.5C9.96606 169.099 9.8492 169.67 9.63706 170.192C10.67 170.591 11.7926 170.809 12.9661 170.809H107.294C107.963 169.162 109.579 168 111.466 168C113.353 168 114.969 169.162 115.638 170.809H148.294C148.963 169.162 150.579 168 152.466 168C154.353 168 155.969 169.162 156.638 170.809H253.639L233.408 145.886L233.997 145.414L235.33 144.348L227.774 135.806C227.214 137.654 225.497 139 223.466 139C221.576 139 219.958 137.835 219.292 136.184C215.173 137.839 210.676 138.75 205.966 138.75C196.435 138.75 187.775 135.02 181.366 128.941C180.583 129.602 179.571 130 178.466 130C175.981 130 173.966 127.985 173.966 125.5C173.966 124.074 174.629 122.803 175.664 121.979C172.212 116.479 170.216 109.973 170.216 103C170.216 93.1715 174.182 84.2693 180.601 77.8067C180.198 77.1322 179.966 76.3432 179.966 75.5C179.966 73.0147 181.981 71 184.466 71C185.701 71 186.819 71.4973 187.632 72.3026C192.993 69.0941 199.264 67.25 205.966 67.25C215.283 67.25 223.767 70.814 230.13 76.6529C230.811 76.2386 231.611 76 232.466 76C234.951 76 236.966 78.0147 236.966 80.5C236.966 81.6168 236.559 82.6386 235.886 83.4252C239.572 89.0485 241.716 95.7739 241.716 103C241.716 110.265 239.548 117.025 235.825 122.667C237.11 123.459 237.966 124.88 237.966 126.5C237.966 128.081 237.15 129.472 235.917 130.275L242.627 138.511L243.997 137.414L244.572 136.955L267.216 164.128V12C267.216 10.7612 266.972 9.57924 266.531 8.49944C265.912 8.81932 265.21 9 264.466 9C261.981 9 259.966 6.98528 259.966 4.5C259.966 3.98334 260.053 3.48701 260.213 3.0249C259.494 2.84533 258.741 2.75 257.966 2.75H12.9661C11.856 2.75 10.7916 2.94554 9.80541 3.30406C9.91013 3.68488 9.96606 4.08591 9.96606 4.5ZM260.964 1.67364C260.013 1.39783 259.007 1.25 257.966 1.25H12.9661C11.6289 1.25 10.3487 1.49416 9.16765 1.94033C8.35536 0.76789 7.00039 0 5.46606 0C2.98078 0 0.966064 2.01472 0.966064 4.5C0.966064 6.03433 1.73396 7.3893 2.90639 8.20159C2.46022 9.3826 2.21606 10.6628 2.21606 12V161.559C2.21606 162.73 2.40324 163.857 2.7493 164.912C1.66584 165.734 0.966064 167.035 0.966064 168.5C0.966064 170.985 2.98078 173 5.46606 173C6.80558 173 8.00839 172.415 8.83274 171.486C10.1052 172.016 11.5015 172.309 12.9661 172.309H106.97L106.968 172.352V172.376L106.967 172.408L106.966 172.454V172.5C106.966 174.985 108.981 177 111.466 177C111.956 177 112.428 176.922 112.869 176.777L111.636 206.25H87.9593C87.8295 203.881 85.8675 202 83.4661 202C80.9808 202 78.9661 204.015 78.9661 206.5C78.9661 208.985 80.9808 211 83.4661 211C85.5176 211 87.2485 209.627 87.7902 207.75H178.142C178.684 209.627 180.414 211 182.466 211C184.951 211 186.966 208.985 186.966 206.5C186.966 204.015 184.951 202 182.466 202C180.065 202 178.103 203.881 177.973 206.25H153.903L152.68 176.995C155.066 176.884 156.966 174.914 156.966 172.5C156.966 172.436 156.965 172.373 156.962 172.309H254.857L268.856 189.554L271.829 187.147C272.57 187.684 273.481 188 274.466 188C276.951 188 278.966 185.985 278.966 183.5C278.966 182.852 278.829 182.236 278.583 181.68L280.529 180.104L268.716 165.928V12C268.716 10.4185 268.375 8.91682 267.761 7.56459C268.509 6.76115 268.966 5.68398 268.966 4.5C268.966 2.01472 266.951 0 264.466 0C263.051 0 261.789 0.652817 260.964 1.67364ZM147.97 172.309H115.962C115.964 172.35 115.965 172.391 115.966 172.433C115.966 172.455 115.966 172.478 115.966 172.5C115.966 173.861 115.362 175.081 114.407 175.906L113.138 206.25H152.402L151.17 176.811C149.317 176.254 147.966 174.535 147.966 172.5C147.966 172.436 147.967 172.373 147.97 172.309ZM274.466 179C275.762 179 276.929 179.548 277.75 180.424L278.403 179.896L267.24 166.5H267.216V166.472L244.36 139.045L239.941 142.581L236.387 145.542L236.325 145.473L235.524 146.114L269.076 187.446L270.773 186.072C270.264 185.343 269.966 184.456 269.966 183.5C269.966 181.015 271.981 179 274.466 179ZM234.402 122.097C234.1 122.034 233.787 122 233.466 122C230.981 122 228.966 124.015 228.966 126.5C228.966 128.985 230.981 131 233.466 131C233.814 131 234.154 130.96 234.479 130.885L241.416 139.399L238.991 141.419L236.503 143.41L227.89 133.674C227.502 131.583 225.669 130 223.466 130C220.981 130 218.966 132.015 218.966 134.5C218.966 134.535 218.966 134.57 218.967 134.604L218.969 134.653L218.97 134.695C214.961 136.342 210.57 137.25 205.966 137.25C196.805 137.25 188.484 133.653 182.338 127.795C182.737 127.123 182.966 126.338 182.966 125.5C182.966 123.015 180.951 121 178.466 121C177.945 121 177.444 121.089 176.979 121.252C173.645 115.968 171.716 109.709 171.716 103C171.716 93.6283 175.48 85.1358 181.579 78.9517C182.36 79.6061 183.367 80 184.466 80C186.951 80 188.966 77.9853 188.966 75.5C188.966 74.7917 188.802 74.1216 188.511 73.5255C193.622 70.4918 199.591 68.75 205.966 68.75C214.83 68.75 222.908 72.1173 228.989 77.6426C228.35 78.4197 227.966 79.415 227.966 80.5C227.966 82.9853 229.981 85 232.466 85C233.29 85 234.061 84.7788 234.725 84.3925C238.199 89.7501 240.216 96.1395 240.216 103C240.216 110.071 238.074 116.641 234.402 122.097ZM205.966 128.5C220.049 128.5 231.466 117.083 231.466 103C231.466 88.9167 220.049 77.5 205.966 77.5C191.883 77.5 180.466 88.9167 180.466 103C180.466 117.083 191.883 128.5 205.966 128.5ZM205.966 130C220.878 130 232.966 117.912 232.966 103C232.966 88.0883 220.878 76 205.966 76C191.054 76 178.966 88.0883 178.966 103C178.966 117.912 191.054 130 205.966 130Z" fill="url(#paint0_angular_522_4033)"/>
<defs>
<radialGradient id="paint0_angular_522_4033" cx="0" cy="0" r="1" gradientUnits="userSpaceOnUse" gradientTransform="translate(273.603 -0.803656) rotate(147.77) scale(322.776 406.141)">
<stop stop-color="#B758F1"/>
<stop offset="0.410765" stop-color="#1DD6FF"/>
<stop offset="0.709962" stop-color="#1D6AFF"/>
<stop offset="1" stop-color="#B758F1"/>
</radialGradient>
</defs>
</svg>
