<svg width="239" height="238" viewBox="0 0 239 238" fill="none" xmlns="http://www.w3.org/2000/svg">
<path fill-rule="evenodd" clip-rule="evenodd" d="M115.429 5.80363C115.155 5.2617 115 4.64889 115 4C115 1.79086 116.791 0 119 0C121.209 0 123 1.79086 123 4C123 4.41567 122.937 4.81653 122.819 5.19344C123.262 5.51499 123.701 5.89999 124.136 6.34659C125.632 7.88515 127.077 10.1543 128.453 13.0765C131.204 18.9212 133.683 27.3785 135.764 37.8291C137.585 46.978 139.103 57.6546 140.234 69.4434C149.369 61.9069 157.992 55.4304 165.75 50.2494C174.611 44.3311 182.343 40.1032 188.421 37.9161C191.08 36.9598 193.422 36.3936 195.404 36.2472C196.053 34.9166 197.42 34 199 34C201.209 34 203 35.7909 203 38C203 38.7406 202.799 39.4342 202.448 40.029C202.691 40.8275 202.802 41.7421 202.788 42.7656C202.76 44.9124 202.176 47.5382 201.082 50.5772C198.895 56.6558 194.668 64.3881 188.749 73.2494C183.568 81.0073 177.091 89.6303 169.555 98.7662C181.344 99.8969 192.021 101.415 201.17 103.237C211.622 105.317 220.079 107.796 225.923 110.547C228.846 111.923 231.115 113.368 232.653 114.865C232.846 115.052 233.027 115.24 233.196 115.429C233.738 115.155 234.351 115 235 115C237.209 115 239 116.791 239 119C239 121.209 237.209 123 235 123C234.584 123 234.183 122.937 233.807 122.819C233.485 123.262 233.1 123.701 232.653 124.135C231.115 125.632 228.846 127.077 225.924 128.453C220.079 131.204 211.622 133.683 201.17 135.764C192.021 137.585 181.345 139.103 169.555 140.234C177.092 149.369 183.568 157.992 188.749 165.75C194.668 174.611 198.895 182.343 201.083 188.421C202.176 191.461 202.76 194.087 202.788 196.233C202.792 196.536 202.786 196.829 202.768 197.112C203.527 197.84 204 198.865 204 200C204 202.209 202.209 204 200 204C198.865 204 197.84 203.527 197.112 202.768C196.829 202.786 196.536 202.792 196.233 202.788C194.087 202.76 191.461 202.176 188.421 201.082C182.343 198.895 174.611 194.668 165.75 188.749C157.992 183.568 149.369 177.092 140.234 169.555C139.103 181.345 137.585 192.021 135.764 201.17C133.683 211.622 131.204 220.079 128.453 225.923C127.077 228.846 125.632 231.115 124.135 232.653C123.756 233.043 123.373 233.386 122.987 233.681C122.996 233.786 123 233.893 123 234C123 236.209 121.209 238 119 238C116.791 238 115 236.209 115 234C115 233.63 115.05 233.272 115.144 232.932C115.051 232.842 114.958 232.749 114.865 232.653C113.368 231.115 111.923 228.846 110.547 225.924C107.796 220.079 105.317 211.622 103.236 201.17C101.415 192.021 99.8968 181.344 98.7662 169.555C89.6302 177.091 81.0072 183.568 73.2494 188.749C64.388 194.668 56.6555 198.895 50.577 201.083C47.5381 202.176 44.9123 202.76 42.7656 202.788C41.7886 202.802 40.9108 202.7 40.1385 202.48C39.4059 203.406 38.2723 204 37 204C34.7909 204 33 202.209 33 200C33 198.06 34.3808 196.443 36.2132 196.077C36.2678 193.96 36.849 191.388 37.9162 188.421C40.1032 182.343 44.3311 174.611 50.2494 165.75C55.4304 157.992 61.9069 149.369 69.4434 140.234C57.6546 139.103 46.978 137.585 37.8291 135.764C27.3785 133.683 18.9212 131.204 13.0766 128.453C10.1543 127.077 7.88515 125.632 6.34661 124.136C5.9 123.701 5.515 123.262 5.19344 122.819C4.81653 122.937 4.41567 123 4 123C1.79086 123 0 121.209 0 119C0 116.791 1.79086 115 4 115C4.64889 115 5.2617 115.155 5.80363 115.429C5.97308 115.24 6.15411 115.052 6.34659 114.864C7.88514 113.368 10.1543 111.923 13.0765 110.547C18.9212 107.796 27.3784 105.317 37.8291 103.237C46.9783 101.415 57.6552 99.897 69.4444 98.7663C61.9074 89.6303 55.4306 81.0073 50.2494 73.2494C44.3311 64.3881 40.1032 56.6556 37.9162 50.5771C36.8227 47.5379 36.2393 44.9121 36.2101 42.7655C36.2046 42.3595 36.2189 41.9707 36.2533 41.5995C34.9194 40.951 34 39.5829 34 38C34 35.7909 35.7909 34 38 34C39.5829 34 40.951 34.9194 41.5995 36.2533C41.9707 36.2189 42.3595 36.2046 42.7655 36.2101C44.9121 36.2393 47.5379 36.8227 50.5771 37.9162C56.6556 40.1032 64.3881 44.3311 73.2494 50.2494C81.0073 55.4306 89.6303 61.9074 98.7663 69.4443C99.8969 57.6552 101.415 46.9783 103.236 37.8291C105.317 27.3785 107.796 18.9212 110.547 13.0766C111.923 10.1543 113.368 7.88515 114.864 6.34659C115.052 6.15411 115.24 5.97308 115.429 5.80363ZM122.1 6.52809C121.366 7.42644 120.25 8 119 8C117.983 8 117.054 7.62021 116.348 6.99467C116.214 7.11852 116.077 7.25105 115.94 7.39263C114.604 8.76489 113.245 10.8695 111.905 13.7155C109.228 19.3996 106.779 27.7203 104.708 38.1221C102.844 47.4783 101.299 58.4552 100.163 70.6018C105.473 75.0198 110.948 79.7879 116.521 84.8608C117.202 84.3218 118.064 84 119 84C120.179 84 121.24 84.5104 121.972 85.3223C127.719 80.0766 133.366 75.1529 138.837 70.6009C137.701 58.4547 136.156 47.4781 134.292 38.1221C132.221 27.7203 129.772 19.3996 127.095 13.7155C125.755 10.8695 124.396 8.76488 123.06 7.39261C122.731 7.05445 122.411 6.76791 122.1 6.52809ZM37.7271 41.9908C37.8173 41.9969 37.9083 42 38 42C40.2091 42 42 40.2091 42 38C42 37.9083 41.9969 37.8173 41.9908 37.7271C42.2292 37.7123 42.4804 37.7064 42.7451 37.71C44.6596 37.736 47.1094 38.2626 50.0693 39.3276C55.9809 41.4545 63.5965 45.6062 72.4163 51.4968C80.3498 56.7953 89.2045 63.4647 98.5968 71.2507C97.9591 78.2065 97.455 85.5351 97.1011 93.1535C96.7513 93.0535 96.3819 93 96 93C93.7909 93 92 94.7909 92 97C92 97.0522 92.001 97.1041 92.003 97.1558C84.7968 97.5062 77.8557 97.9913 71.2507 98.5969C63.4647 89.2045 56.7953 80.3498 51.4968 72.4163C45.6062 63.5965 41.4545 55.9809 39.3276 50.0693C38.2626 47.1094 37.736 44.6596 37.71 42.7451C37.7064 42.4804 37.7123 42.2292 37.7271 41.9908ZM92.3509 98.6407C85.4396 98.9732 78.774 99.4297 72.4167 99.9975C76.6399 105.049 81.1788 110.249 85.9948 115.538C86.5843 115.196 87.2693 115 88 115C89.0693 115 90.0405 115.42 90.7582 116.103C92.6613 114.078 94.6014 112.044 96.5766 110.004C96.6263 106.941 96.6997 103.912 96.796 100.921C96.5387 100.973 96.2726 101 96 101C94.3755 101 92.9773 100.032 92.3509 98.6407ZM98.3185 100.26C98.2284 102.953 98.1568 105.678 98.1045 108.431C99.7908 106.703 101.502 104.97 103.236 103.236C104.97 101.502 106.703 99.7907 108.431 98.1045C105.511 98.1599 102.623 98.2371 99.7718 98.3351C99.495 99.117 98.982 99.7872 98.3185 100.26ZM99.9963 96.8265C103.287 96.7151 106.625 96.6314 110.004 96.5766C112.044 94.6014 114.078 92.6613 116.103 90.7582C115.42 90.0405 115 89.0693 115 88C115 87.2692 115.196 86.5843 115.538 85.9947C110.249 81.1788 105.049 76.6399 99.9975 72.4167C99.3865 79.2575 98.9044 86.4554 98.567 93.9322C99.4016 94.6314 99.9467 95.6648 99.9963 96.8265ZM117.35 91.6449C115.638 93.2519 113.919 94.8858 112.196 96.5452C114.611 96.5152 117.047 96.5 119.5 96.5C121.953 96.5 124.388 96.5152 126.803 96.5452C124.953 94.7642 123.109 93.0126 121.273 91.2921C120.627 91.7385 119.844 92 119 92C118.412 92 117.853 91.873 117.35 91.6449ZM122.326 90.2233C124.539 92.2973 126.763 94.416 128.995 96.5766C132.033 96.6258 135.038 96.6985 138.005 96.7936C138.084 95.2401 139.05 93.9204 140.406 93.3304C140.07 86.0687 139.597 79.0731 139.002 72.4158C133.728 76.8254 128.292 81.5793 122.76 86.6333C122.915 87.0598 123 87.52 123 88C123 88.8227 122.752 89.5875 122.326 90.2233ZM145.999 97.1082C146 97.0722 146 97.0362 146 97C146 94.7909 144.209 93 142 93C141.964 93 141.928 93.0005 141.892 93.0014C141.538 85.4373 141.037 78.1596 140.403 71.2498C149.795 63.4641 158.65 56.7951 166.583 51.4967C175.402 45.6062 183.018 41.4545 188.929 39.3276C191.281 38.4816 193.311 37.9753 195.005 37.7898C195.002 37.8594 195 37.9295 195 38C195 40.2091 196.791 42 199 42C199.815 42 200.573 41.7564 201.205 41.3381C201.266 41.7584 201.296 42.226 201.288 42.7453C201.263 44.6597 200.736 47.1095 199.671 50.0693C197.544 55.9809 193.393 63.5965 187.502 72.4163C182.203 80.3498 175.534 89.2044 167.748 98.5968C160.839 97.9633 153.562 97.4617 145.999 97.1082ZM142.206 100.995C143.76 100.916 145.08 99.9505 145.67 98.5945C152.931 98.9304 159.925 99.4029 166.582 99.9974C162.244 105.186 157.573 110.531 152.611 115.969C151.91 115.365 150.998 115 150 115C149.193 115 148.442 115.239 147.814 115.65C146.048 113.775 144.251 111.893 142.423 110.005C142.374 106.967 142.302 103.962 142.206 100.995ZM138.216 98.3012C138.616 99.4636 139.536 100.384 140.699 100.784C140.781 103.306 140.847 105.857 140.896 108.433C139.209 106.704 137.497 104.971 135.763 103.236C134.028 101.502 132.296 99.7907 130.567 98.1045C133.143 98.1534 135.694 98.2191 138.216 98.3012ZM146.734 116.69C145.327 115.197 143.901 113.699 142.455 112.197C142.485 114.612 142.5 117.047 142.5 119.5C142.5 121.952 142.485 124.387 142.455 126.801C144.053 125.141 145.628 123.485 147.179 121.835C146.451 121.111 146 120.108 146 119C146 118.14 146.272 117.343 146.734 116.69ZM148.439 122.684C146.473 124.778 144.467 126.883 142.423 128.994C142.369 132.374 142.285 135.712 142.173 139.004C143.335 139.053 144.369 139.598 145.068 140.433C152.545 140.096 159.742 139.614 166.583 139.003C162.085 133.623 157.229 128.074 152.062 122.428C151.46 122.791 150.754 123 150 123C149.446 123 148.919 122.887 148.439 122.684ZM153.179 121.428C158.611 127.363 163.702 133.193 168.398 138.837C180.545 137.701 191.521 136.156 200.878 134.292C211.28 132.221 219.601 129.772 225.284 127.095C228.13 125.755 230.235 124.396 231.607 123.061C231.945 122.731 232.232 122.411 232.472 122.1C231.574 121.366 231 120.25 231 119C231 117.983 231.38 117.054 232.005 116.348C231.881 116.214 231.749 116.077 231.607 115.94C230.235 114.605 228.13 113.245 225.285 111.905C219.601 109.228 211.28 106.779 200.878 104.708C191.521 102.844 180.544 101.299 168.397 100.163C163.81 105.677 158.845 111.368 153.554 117.162C153.839 117.712 154 118.337 154 119C154 119.913 153.694 120.754 153.179 121.428ZM141.844 146.997C141.896 146.999 141.948 147 142 147C144.209 147 146 145.209 146 143C146 142.618 145.946 142.249 145.847 141.899C153.465 141.545 160.793 141.041 167.749 140.403C175.535 149.795 182.204 158.65 187.502 166.583C193.393 175.402 197.544 183.018 199.672 188.929C200.729 191.868 201.255 194.304 201.288 196.212C200.884 196.074 200.451 196 200 196C197.791 196 196 197.791 196 200C196 200.451 196.074 200.884 196.212 201.288C194.304 201.255 191.868 200.729 188.929 199.671C183.018 197.544 175.402 193.393 166.583 187.502C158.65 182.204 149.795 175.535 140.403 167.749C141.009 161.144 141.494 154.203 141.844 146.997ZM138.079 142.204C138.027 142.461 138 142.727 138 143C138 144.624 138.968 146.023 140.359 146.649C140.027 153.56 139.57 160.226 139.003 166.583C133.728 162.174 128.292 157.42 122.761 152.366C122.916 151.94 123 151.48 123 151C123 150.177 122.751 149.412 122.325 148.776C124.538 146.702 126.762 144.584 128.994 142.423C132.058 142.374 135.088 142.3 138.079 142.204ZM140.665 139.228C139.883 139.505 139.213 140.018 138.74 140.682C136.046 140.772 133.32 140.843 130.566 140.896C132.295 139.209 134.028 137.497 135.763 135.763C137.497 134.028 139.209 132.295 140.896 130.566C140.84 133.487 140.763 136.376 140.665 139.228ZM121.272 147.707C123.108 145.987 124.952 144.236 126.801 142.455C124.387 142.485 121.952 142.5 119.5 142.5C117.047 142.5 114.612 142.485 112.197 142.455C113.921 144.114 115.639 145.748 117.351 147.355C117.854 147.127 118.412 147 119 147C119.844 147 120.627 147.261 121.272 147.707ZM116.104 148.241C114.079 146.338 112.045 144.398 110.005 142.423C106.597 142.368 103.232 142.284 99.9139 142.171C99.9703 142.438 100 142.716 100 143C100 144.211 99.4617 145.297 98.6113 146.03C98.946 153.162 99.4127 160.036 99.9974 166.582C105.049 162.359 110.248 157.82 115.538 153.004C115.196 152.415 115 151.73 115 151C115 149.93 115.42 148.959 116.104 148.241ZM116.52 154.139C110.948 159.211 105.473 163.979 100.163 168.397C101.299 180.544 102.844 191.521 104.708 200.878C106.779 211.28 109.228 219.601 111.905 225.285C113.218 228.073 114.55 230.15 115.859 231.523C116.591 230.595 117.726 230 119 230C120.528 230 121.856 230.857 122.529 232.116C122.704 231.961 122.881 231.792 123.06 231.607C124.395 230.235 125.755 228.13 127.095 225.285C129.772 219.601 132.221 211.28 134.292 200.878C136.156 191.521 137.701 180.545 138.837 168.398C133.366 163.846 127.72 158.923 121.972 153.677C121.24 154.489 120.18 155 119 155C118.063 155 117.202 154.678 116.52 154.139ZM92.1671 141.852C92.0584 142.216 92 142.601 92 143C92 145.209 93.7909 147 96 147C96.3989 147 96.7842 146.942 97.1478 146.833C97.4988 154.097 97.9866 161.093 98.5967 167.748C89.2044 175.534 80.3497 182.203 72.4163 187.502C63.5966 193.393 55.981 197.544 50.0693 199.672C47.1094 200.736 44.6595 201.263 42.7451 201.288C42.0121 201.299 41.3824 201.236 40.8431 201.113C40.9453 200.76 41 200.386 41 200C41 198.035 39.5826 196.4 37.7142 196.064C37.7712 194.178 38.2976 191.792 39.3276 188.929C41.4545 183.018 45.6062 175.402 51.4968 166.583C56.7951 158.65 63.4641 149.795 71.2498 140.403C77.9052 141.013 84.9019 141.501 92.1671 141.852ZM96.8293 139.086C96.5618 139.03 96.2843 139 96 139C94.7888 139 93.7034 139.538 92.9699 140.389C85.8371 140.054 78.9629 139.587 72.4158 139.002C76.8254 133.728 81.5793 128.292 86.6333 122.76C87.0597 122.915 87.52 123 88 123C88.8227 123 89.5875 122.752 90.2233 122.326C92.2973 124.539 94.416 126.763 96.5766 128.995C96.6318 132.403 96.7165 135.769 96.8293 139.086ZM99.2345 140.646C98.9886 140.309 98.6911 140.011 98.3538 139.766C98.2468 136.739 98.1634 133.671 98.1045 130.567C99.7908 132.296 101.502 134.028 103.236 135.763C104.971 137.497 106.704 139.209 108.433 140.896C105.329 140.837 102.261 140.753 99.2345 140.646ZM91.2921 121.273C93.0127 123.109 94.7642 124.953 96.5452 126.803C96.5152 124.388 96.5 121.953 96.5 119.5C96.5 117.047 96.5152 114.611 96.5452 112.196C94.8858 113.919 93.2519 115.638 91.6449 117.35C91.873 117.853 92 118.412 92 119C92 119.844 91.7385 120.627 91.2921 121.273ZM84.8608 116.521C84.3218 117.202 84 118.064 84 119C84 120.179 84.5104 121.24 85.3223 121.972C80.0766 127.719 75.1529 133.366 70.6009 138.837C58.4547 137.701 47.4781 136.156 38.1221 134.292C27.7203 132.221 19.3996 129.772 13.7155 127.095C10.8695 125.755 8.76487 124.396 7.39263 123.06C7.05447 122.731 6.76791 122.411 6.5281 122.1C7.42644 121.366 8 120.25 8 119C8 117.983 7.62021 117.054 6.99467 116.348C7.11851 116.214 7.25104 116.077 7.39261 115.94C8.76486 114.604 10.8695 113.245 13.7155 111.905C19.3996 109.228 27.7204 106.779 38.1221 104.708C47.4783 102.845 58.4552 101.299 70.6019 100.163C75.0198 105.473 79.788 110.948 84.8608 116.521ZM104.297 104.297C102.184 106.409 100.107 108.518 98.0671 110.621C98.0227 113.551 98 116.512 98 119.5C98 122.487 98.0226 125.448 98.0671 128.378C100.107 130.48 102.184 132.59 104.297 134.702C106.409 136.815 108.519 138.893 110.622 140.933C113.552 140.977 116.513 141 119.5 141C122.487 141 125.447 140.977 128.376 140.933C130.479 138.893 132.589 136.815 134.702 134.702C136.815 132.589 138.893 130.479 140.933 128.376C140.977 125.447 141 122.487 141 119.5C141 116.513 140.977 113.552 140.933 110.622C138.893 108.519 136.815 106.409 134.702 104.297C132.59 102.184 130.48 100.107 128.378 98.0671C125.448 98.0226 122.487 98 119.5 98C116.512 98 113.551 98.0226 110.621 98.0671C108.518 100.107 106.409 102.184 104.297 104.297Z" fill="url(#paint0_angular_522_4034)"/>
<defs>
<radialGradient id="paint0_angular_522_4034" cx="0" cy="0" r="1" gradientUnits="userSpaceOnUse" gradientTransform="translate(233.079 -0.906494) rotate(140.246) scale(303.625 416.344)">
<stop stop-color="#B758F1"/>
<stop offset="0.410765" stop-color="#1DD6FF"/>
<stop offset="0.709962" stop-color="#1D6AFF"/>
<stop offset="1" stop-color="#B758F1"/>
</radialGradient>
</defs>
</svg>
